<?xml version="1.0" standalone="no"?>
<!DOCTYPE svg PUBLIC "-//W3C//DTD SVG 20010904//EN"
 "http://www.w3.org/TR/2001/REC-SVG-20010904/DTD/svg10.dtd">
<svg version="1.0" xmlns="http://www.w3.org/2000/svg"
 width="64.000000pt" height="64.000000pt" viewBox="0 0 64.000000 64.000000"
 preserveAspectRatio="xMidYMid meet">

<g transform="translate(0.000000,64.000000) scale(0.100000,-0.100000)"
fill="#000000" stroke="none">
<path d="M225 597 c-83 -33 -128 -72 -167 -147 -34 -65 -33 -195 1 -262 29
-57 71 -98 131 -130 65 -33 195 -33 260 0 101 53 152 133 158 249 3 60 0 80
-20 125 -35 76 -70 112 -140 147 -51 26 -73 31 -127 30 -36 0 -79 -6 -96 -12z
m169 -49 c86 -26 166 -136 166 -228 0 -124 -116 -240 -240 -240 -63 0 -114 23
-165 75 -102 101 -102 229 0 330 70 71 145 90 239 63z"/>
<path d="M302 498 c-7 -7 -12 -44 -12 -98 l0 -86 55 -54 c52 -51 56 -53 72
-37 16 16 15 19 -25 60 l-42 43 0 80 c0 72 -9 104 -30 104 -3 0 -11 -5 -18
-12z"/>
</g>
</svg>
