<?xml version="1.0" standalone="no"?>
<!DOCTYPE svg PUBLIC "-//W3C//DTD SVG 20010904//EN"
 "http://www.w3.org/TR/2001/REC-SVG-20010904/DTD/svg10.dtd">
<svg version="1.0" xmlns="http://www.w3.org/2000/svg"
 width="64.000000pt" height="64.000000pt" viewBox="0 0 64.000000 64.000000"
 preserveAspectRatio="xMidYMid meet">

<g transform="translate(0.000000,64.000000) scale(0.100000,-0.100000)"
fill="#000000" stroke="none">
<path d="M180 563 l-135 -78 0 -165 0 -165 138 -79 137 -79 138 79 137 79 0
165 0 165 -135 78 c-74 42 -137 77 -140 77 -3 0 -66 -35 -140 -77z m250 -25
c60 -35 110 -65 110 -68 0 -3 -50 -33 -110 -67 l-110 -61 -110 61 c-60 34
-109 64 -109 67 0 4 201 123 217 129 1 1 52 -27 112 -61z m-235 -167 l100 -59
3 -130 3 -131 -108 63 -108 62 -3 127 c-1 70 1 127 5 127 4 -1 53 -27 108 -59z
m365 -68 l-1 -128 -110 -62 -110 -62 3 131 3 130 100 59 c55 32 103 58 108 59
4 0 7 -57 7 -127z"/>
</g>
</svg>
