<?xml version="1.0" standalone="no"?>
<!DOCTYPE svg PUBLIC "-//W3C//DTD SVG 20010904//EN"
 "http://www.w3.org/TR/2001/REC-SVG-20010904/DTD/svg10.dtd">
<svg version="1.0" xmlns="http://www.w3.org/2000/svg"
 width="64.000000pt" height="64.000000pt" viewBox="0 0 64.000000 64.000000"
 preserveAspectRatio="xMidYMid meet">

<g transform="translate(0.000000,64.000000) scale(0.100000,-0.100000)"
fill="#000000" stroke="none">
<path d="M100 620 c-19 -19 -20 -33 -20 -300 0 -267 1 -281 20 -300 19 -19 33
-20 220 -20 187 0 201 1 220 20 19 19 20 33 20 243 l0 224 -79 76 -79 77 -141
0 c-128 0 -143 -2 -161 -20z m270 -85 c0 -77 9 -85 99 -85 l61 0 0 -193 c0
-137 -3 -196 -12 -205 -17 -17 -379 -17 -396 0 -17 17 -17 519 0 536 8 8 52
12 130 12 l118 0 0 -65z m130 -42 c0 -2 -20 -3 -45 -3 l-45 0 0 47 0 47 45
-44 c25 -24 45 -45 45 -47z"/>
<path d="M164 379 c-14 -24 18 -29 157 -27 128 3 144 5 147 21 3 16 -9 17
-147 17 -97 0 -152 -4 -157 -11z"/>
<path d="M164 279 c-14 -24 18 -29 157 -27 128 3 144 5 147 21 3 16 -9 17
-147 17 -97 0 -152 -4 -157 -11z"/>
<path d="M165 180 c-13 -21 11 -31 66 -28 40 2 54 7 54 18 0 19 -109 28 -120
10z"/>
</g>
</svg>
