<?xml version="1.0" encoding="UTF-8"?>
<!DOCTYPE svg PUBLIC "-//W3C//DTD SVG 1.1//EN" "http://www.w3.org/Graphics/SVG/1.1/DTD/svg11.dtd">
<svg xmlns="http://www.w3.org/2000/svg" version="1.1" width="1600px" height="1600px" style="shape-rendering:geometricPrecision; text-rendering:geometricPrecision; image-rendering:optimizeQuality; fill-rule:evenodd; clip-rule:evenodd" xmlns:xlink="http://www.w3.org/1999/xlink">
<g><path style="opacity:0.998" fill="#000000" d="M 232.5,199.5 C 321.501,199.333 410.501,199.5 499.5,200C 544.322,205.878 579.822,227.044 606,263.5C 631.008,308.18 655.508,353.18 679.5,398.5C 908.499,399.333 1137.5,399.833 1366.5,400C 1423.28,408.463 1463.78,438.629 1488,490.5C 1493.54,504.005 1497.21,518.005 1499,532.5C 1499.67,777.167 1499.67,1021.83 1499,1266.5C 1490.54,1323.28 1460.37,1363.78 1408.5,1388C 1395,1393.54 1381,1397.21 1366.5,1399C 988.5,1399.67 610.5,1399.67 232.5,1399C 167.107,1388.39 124.273,1351.56 104,1288.5C 102.152,1281.26 100.818,1273.93 100,1266.5C 99.3333,955.167 99.3333,643.833 100,332.5C 109.463,271.375 142.963,229.541 200.5,207C 211.152,203.835 221.819,201.335 232.5,199.5 Z M 249.5,299.5 C 326.834,299.333 404.167,299.5 481.5,300C 498.382,300.357 511.882,307.19 522,320.5C 536.421,346.34 550.587,372.34 564.5,398.5C 442.835,399.5 321.168,399.833 199.5,399.5C 199.333,382.83 199.5,366.163 200,349.5C 202.677,318.99 219.177,302.324 249.5,299.5 Z M 199.5,499.5 C 582.833,499.333 966.167,499.5 1349.5,500C 1380,502.5 1396.5,519 1399,549.5C 1399.67,782.833 1399.67,1016.17 1399,1249.5C 1396.59,1279.49 1380.42,1295.99 1350.5,1299C 983.167,1299.67 615.833,1299.67 248.5,1299C 218.53,1296.03 202.363,1279.53 200,1249.5C 199.5,999.5 199.333,749.5 199.5,499.5 Z"/></g>
</svg>
