<svg id="download" xmlns="http://www.w3.org/2000/svg" xmlns:xlink="http://www.w3.org/1999/xlink" width="1190.657" height="614.159" viewBox="0 0 1190.657 614.159">
  <defs>
    <linearGradient id="linear-gradient" x1="0.23" y1="0.689" x2="0.679" y2="0.5" gradientUnits="objectBoundingBox">
      <stop offset="0" stop-color="#1caad9"/>
      <stop offset="1" stop-color="#49cdf8"/>
    </linearGradient>
    <linearGradient id="linear-gradient-2" x1="0.289" y1="0.77" x2="0.559" y2="0.33" xlink:href="#linear-gradient"/>
    <linearGradient id="linear-gradient-3" x1="0.193" y1="0.857" x2="0.554" y2="0.25" xlink:href="#linear-gradient"/>
    <linearGradient id="linear-gradient-4" x1="0.143" y1="0.788" x2="0.674" y2="0.468" xlink:href="#linear-gradient"/>
    <linearGradient id="linear-gradient-5" x1="0" y1="1" x2="0.624" y2="0.413" xlink:href="#linear-gradient"/>
  </defs>
  <path id="Path_838" data-name="Path 838" d="M0-23.667H1190.657V590.492H0Z" transform="translate(0 23.667)" fill="none" fill-rule="evenodd"/>
  <g id="Group_872" data-name="Group 872" transform="translate(821.974 334.991)">
    <path id="Path_839" data-name="Path 839" d="M144.606,99.478a8.312,8.312,0,0,1-4.516-10.409l18.134-53.541L71.991,1.8a9.182,9.182,0,0,0-7.778.352,10.3,10.3,0,0,0-5.248,6.174L1.069,179.264a12.529,12.529,0,0,0-.521,2.124,10.9,10.9,0,0,0,.161,4.178,12.027,12.027,0,0,0,.685,2.054,10.09,10.09,0,0,0,5.745,5.633L140.76,245.52a10.548,10.548,0,0,0,1.979.557,9.066,9.066,0,0,0,5.8-.908,10.275,10.275,0,0,0,1.75-1.1,10.481,10.481,0,0,0,3.495-5.076l40.652-120.023L144.606,99.481Z" transform="translate(-0.418 -1.1)" fill="#fefefe" fill-rule="evenodd"/>
    <path id="Path_840" data-name="Path 840" d="M139.237,86.481a8.312,8.312,0,0,0,4.516,10.412l49.823,19.484,1.036-3.048a23.035,23.035,0,0,0,1.018-4.686,34.307,34.307,0,0,0,.179-5.5q-.061-1.426-.22-2.844a28.311,28.311,0,0,0-1.012-4.99,20.013,20.013,0,0,0-.795-2.156L174.055,47.69a26.327,26.327,0,0,0-5.822-8.08,24.24,24.24,0,0,0-8.022-5.563l-2.84-1.1L139.237,86.485Z" transform="translate(0.438 1.488)" fill-rule="evenodd" fill="url(#linear-gradient)"/>
    <path id="Path_841" data-name="Path 841" d="M78.812,145.856a8.715,8.715,0,0,1-5.328,5.815q-3.827,1.387-9.112-.678a20.479,20.479,0,0,1-7.948-5.336l2.185-6.436a38.639,38.639,0,0,0,4.507,4.117,16.061,16.061,0,0,0,3.7,2.127,5.52,5.52,0,0,0,3.548.4,3.071,3.071,0,0,0,2.012-2.15,3.263,3.263,0,0,0,.08-1.906,6.664,6.664,0,0,0-.976-2.018,43.361,43.361,0,0,0-3.194-3.752,21.158,21.158,0,0,1-3.265-4.341,11.369,11.369,0,0,1-1.2-3.89,9.739,9.739,0,0,1,.53-4.35,8.74,8.74,0,0,1,5.045-5.748q3.572-1.411,8.4.48a18.542,18.542,0,0,1,4.316,2.367,33.805,33.805,0,0,1,3.935,3.464L82.137,128.6a32.914,32.914,0,0,0-3.515-3.071,13.619,13.619,0,0,0-2.989-1.651,4.124,4.124,0,0,0-3.12-.182,3.135,3.135,0,0,0-1.789,2.009,3.427,3.427,0,0,0-.149,1.756,5.156,5.156,0,0,0,.816,1.807,42.408,42.408,0,0,0,3.31,3.893q3.523,3.858,4.358,6.679a9.742,9.742,0,0,1-.247,6.014m14.172,15.824-6.447-2.521,9.114-26.917-8.257-3.231,1.95-5.771,22.968,8.985-1.95,5.771-8.263-3.231Zm12.939,5.06L117,134.052l6.447,2.527-9.132,26.956,12.338,4.824-1.935,5.726Z" transform="translate(-0.072 8.327)" fill="#ddd" fill-rule="evenodd"/>
  </g>
  <g id="Group_873" data-name="Group 873" transform="translate(166.693 367.225)">
    <path id="Path_842" data-name="Path 842" d="M196.521,150.228,158.706,38.576,112.356,56.7a6.915,6.915,0,0,1-9.01-4.51L86.477,2.376,6.254,33.755A9.38,9.38,0,0,0,.908,39a10.45,10.45,0,0,0-.3,7.767L54.464,205.787a9.576,9.576,0,0,0,4.879,5.745,8.558,8.558,0,0,0,7.233.323l124.3-48.618a9.381,9.381,0,0,0,5.346-5.243,10.45,10.45,0,0,0,.3-7.77" transform="translate(-0.001 -2.376)"/>
    <path id="Path_843" data-name="Path 843" d="M196.521,150.228,158.706,38.576,112.356,56.7a6.915,6.915,0,0,1-9.01-4.51L86.477,2.376,6.254,33.755A9.38,9.38,0,0,0,.908,39a10.45,10.45,0,0,0-.3,7.767L54.464,205.787a9.576,9.576,0,0,0,4.879,5.745,8.558,8.558,0,0,0,7.233.323l124.3-48.618a9.381,9.381,0,0,0,5.346-5.243,10.45,10.45,0,0,0,.3-7.77" transform="translate(-0.001 -2.376)" fill="#fff"/>
  </g>
  <path id="Path_844" data-name="Path 844" d="M102.814,52.359a6.915,6.915,0,0,0,9.01,4.513l46.346-18.127-.958-2.84a24.662,24.662,0,0,0-4.813-8.022,23.232,23.232,0,0,0-7-5.819l-39.36-19.72A21.552,21.552,0,0,0,97.4.322a21.353,21.353,0,0,0-8.811,1.193L85.946,2.552Z" transform="translate(167.224 364.68)" fill-rule="evenodd" fill="url(#linear-gradient-2)"/>
  <path id="Path_845" data-name="Path 845" d="M267.352,454.924l-5.882,2.3,3.7-3.3,2.185.992Zm-21.295-15.45,8.751-19.084,40.423-.128-30.9,27.541-18.277-8.326Zm1.033-24.346,5.662-2.214-1.009,2.2Zm26.224,36.77-3.885-1.769,15.547-13.86L273.311,451.9Zm21.792,9.929-17.086-7.783,20.691-27.72-3.6,35.5Zm-15.752-46.8-22.116.074,2.158-4.709Zm14.339-2.079L261.637,405.5l7.6-16.585Zm-56.577-13.275,26.45-10.345-7.671,16.729L235.844,413.9l1.271-14.228Zm25.93,76.524-9.582-10.207L274,457.953l16.485,7.511-27.436,10.729Zm41.346-59.5q-.01-.028-.021-.054l-.015-.038a.041.041,0,0,0-.012-.026v-.006l-.018-.045-.021-.048a.018.018,0,0,0-.006-.016.026.026,0,0,1-.006-.013l-.018-.032a.512.512,0,0,1-.024-.064l-.006-.006c0-.006-.006-.01-.009-.016l-.009-.013c0-.006,0-.01-.006-.013l-.03-.064-.03-.051a.288.288,0,0,1-.036-.054l-.039-.064-.03-.042-.045-.064v0l-.009-.01-.021-.026-.042-.054-.018-.022-.021-.026-.036-.038-.027-.032-.009-.01-.015-.016a.009.009,0,0,0-.006-.01l-.012-.01c0-.006-.009-.01-.015-.016l-.03-.032-.012-.01-.006-.006-33.559-32.973-.021-.022-.015-.016v0l-.039-.032a.355.355,0,0,0-.051-.045l-.012-.013-.03-.026a.411.411,0,0,0-.048-.038.166.166,0,0,1-.024-.019l-.027-.019-.042-.035-.039-.026c0-.006-.009-.01-.015-.013l-.009-.006-.03-.019-.089-.054-.015-.01a.671.671,0,0,0-.1-.058.94.94,0,0,0-.116-.058v0l-.11-.048-.009,0a1.1,1.1,0,0,0-.119-.042l-.077-.025-.051-.013-.051-.013-.071-.019h-.006v0l-.024,0-.089-.016-.03-.006-.086-.01-.045,0-.071,0-.059,0-.06,0h-.116a.612.612,0,0,0-.08.01h-.039l-.08.01a.14.14,0,0,0-.039.006.524.524,0,0,0-.074.013.109.109,0,0,0-.045.006h-.006l-.06.016a.133.133,0,0,0-.048.013h-.018l-.045.016a.021.021,0,0,0-.018.006,33.8,33.8,0,0,1-.06.019l-.03.01-.051.016a.112.112,0,0,0-.042.016h-.009L233.99,395.267a1.872,1.872,0,0,0-.247.109c-.006,0-.009.006-.015.01l-.089.048a2.543,2.543,0,0,0-.64.537l-.006.01-.06.077-.021.026-.045.058a.287.287,0,0,0-.03.051.088.088,0,0,0-.03.038l-.045.07a.1.1,0,0,0-.015.022l-.051.089-.006.006a2.835,2.835,0,0,0-.232.576v.013a.612.612,0,0,0-.03.106,2.724,2.724,0,0,0-.065.409l-1.786,20.015a2.527,2.527,0,0,0-.012.425v.029l.009.1.006.064.006.061.018.1,0,.029a2.736,2.736,0,0,0,.256.752l0,.006a2.588,2.588,0,0,0,.414.589l.077.08.015.016.063.058.03.029.051.042a.2.2,0,0,0,.051.038.132.132,0,0,0,.033.026l.068.054c.006,0,.012.006.018.013.03.019.06.032.089.054a2.393,2.393,0,0,0,1.277.365l16.261-.048-8.823,19.244a.406.406,0,0,0-.03.064l-.024.064v.006l-.018.032-.03.093-.012.029-.03.1a1.19,1.19,0,0,0-.033.128.081.081,0,0,1-.009.032l-.021.1a.172.172,0,0,1-.006.042l-.015.086a.125.125,0,0,1-.006.048.651.651,0,0,1-.009.08v.058a.567.567,0,0,0-.009.07v.256l0,.074.006.051.006.077.006.051.012.077.006.048.015.077.012.048.015.07.015.054.018.064.018.058.021.058.021.061.021.051.03.07.018.042a.487.487,0,0,0,.03.07l.021.038.036.074a.238.238,0,0,1,.021.038l.042.07a.138.138,0,0,0,.024.032l.045.074.024.032.048.07.03.032a.333.333,0,0,0,.045.064.384.384,0,0,1,.033.042.41.41,0,0,1,.048.054l.042.045.042.045a.8.8,0,0,1,.089.086l.063.051q.049.046.1.086l.03.022.077.054.024.019.08.051c.012.006.018.013.03.013l.074.045.033.019h.006a.291.291,0,0,0,.063.032l.06.032,18.327,8.349-12.642,11.272a.01.01,0,0,0-.009.006,2.777,2.777,0,0,0-.622.822,2.594,2.594,0,0,0-.17.454v.006l-.027.093a.1.1,0,0,1-.009.032l-.012.064-.012.07a.2.2,0,0,0-.006.032l-.015.1v.01a2.921,2.921,0,0,0,.152,1.343l.009.026.015.038.033.083h0l.009.022,0,.01c.018.032.033.074.051.1l.015.032.045.08.03.051a1.48,1.48,0,0,0,.1.154l.065.09.006.01a1.4,1.4,0,0,0,.137.16l.009.013.048.054,13.41,14.292a1.836,1.836,0,0,0,.137.134c.006,0,.009.01.015.016l.119.1.018.019.122.09a.315.315,0,0,0,.054.032.6.6,0,0,0,.074.048l.092.054a.632.632,0,0,0,.08.042l.071.032.068.032.066.029.128.042.054.016a1.125,1.125,0,0,0,.11.029,1.215,1.215,0,0,0,.19.038h.009l.158.019h.009a1.931,1.931,0,0,0,.333,0h.009a1.89,1.89,0,0,0,.327-.048l.036-.01.1-.032.06-.016a.478.478,0,0,0,.089-.032l.051-.013.021-.01,34.731-13.585.018-.006.054-.022.063-.032.021-.006.06-.026.089-.048.039-.022a2.245,2.245,0,0,0,.277-.192,2.149,2.149,0,0,0,.238-.2l.039-.038.048-.051.042-.051.012-.013.03-.032a.626.626,0,0,0,.051-.067l.024-.032,0,0,.048-.067a.221.221,0,0,1,.024-.032l.024-.038a.281.281,0,0,0,.018-.032l0,0,.024-.038.033-.058q.017-.033.036-.064a.369.369,0,0,0,.03-.058l.018-.038c.011-.017.02-.034.03-.051l.009-.026.03-.067a.524.524,0,0,0,.03-.074.417.417,0,0,1,.018-.054l.018-.051.009-.026.018-.058a.321.321,0,0,1,.012-.042l.015-.064.006-.019.009-.026,0-.016.009-.042q.013-.059.021-.118l0-.016a1.92,1.92,0,0,0,.03-.224l4.876-48,0-.032,0-.022v-.01l0-.032v-.013l0-.054v-.013l0-.019v-.275a.633.633,0,0,1-.009-.08v-.026l-.006-.016a.712.712,0,0,0-.009-.083v-.032a.1.1,0,0,1-.009-.032l-.009-.064a.1.1,0,0,1-.006-.032l-.009-.042a.284.284,0,0,0-.012-.048v-.016s0-.006-.006-.006v-.01a.515.515,0,0,1-.015-.054l-.009-.035v-.016l-.009-.019-.018-.064-.012-.032v-.006l-.009-.019Z" transform="translate(1.427 56.629)" fill="#ddd" fill-rule="evenodd"/>
  <g id="Group_874" data-name="Group 874" transform="translate(288.16 272.034)">
    <path id="Path_846" data-name="Path 846" d="M226.627,73.167,157.331,86.3c-5.454,1.028-10.653-2.883-11.621-8.742L133.494,3.088,13.55,25.819a12.952,12.952,0,0,0-8.722,5.943A14.791,14.791,0,0,0,2.617,42.6l39.009,237.75a14.236,14.236,0,0,0,7.867,10.8,12.165,12.165,0,0,0,7.748.947l185.844-35.212a12.942,12.942,0,0,0,8.719-5.943,14.807,14.807,0,0,0,2.215-10.837Z" transform="translate(-2.387 -3.088)"/>
    <path id="Path_847" data-name="Path 847" d="M226.627,73.167,157.331,86.3c-5.454,1.028-10.653-2.883-11.621-8.742L133.494,3.088,13.55,25.819a12.952,12.952,0,0,0-8.722,5.943A14.791,14.791,0,0,0,2.617,42.6l39.009,237.75a14.236,14.236,0,0,0,7.867,10.8,12.165,12.165,0,0,0,7.748.947l185.844-35.212a12.942,12.942,0,0,0,8.719-5.943,14.807,14.807,0,0,0,2.215-10.837Z" transform="translate(-2.387 -3.088)" fill="#fff"/>
  </g>
  <path id="Path_848" data-name="Path 848" d="M144.9,77.641c.967,5.858,6.165,9.769,11.618,8.742l69.3-13.131-.7-4.245a28.2,28.2,0,0,0-.67-3.016,39.885,39.885,0,0,0-4.242-9.532,34.227,34.227,0,0,0-8.489-10.041L160.971,8.235a31.477,31.477,0,0,0-11.677-5.144,30.251,30.251,0,0,0-12.654-.665l-3.95.749,12.216,74.467Z" transform="translate(286.579 268.859)" fill-rule="evenodd" fill="url(#linear-gradient-3)"/>
  <path id="Path_849" data-name="Path 849" d="M378,428.06l-8.829,1.673-7.457-45.454,24.245-4.6,1.3,7.9L371.836,390.5l1.92,11.723,14.35-2.719,1.292,7.869-14.353,2.719Zm29.415-25.993,1.944,11.845,5.843-1.11q3.706-.7,5.221-2.556a6.04,6.04,0,0,0,1-5q-.929-5.662-8.454-4.235Zm-1.256-7.651,5.209-.985q3.648-.7,5.081-2.217a4.836,4.836,0,0,0,.976-4.318,4.039,4.039,0,0,0-2.393-3.41q-1.965-.8-5.816-.064l-4.715.889,1.658,10.108Zm-11.924-16.3L407.4,375.62q9-1.708,13.517.275t5.5,7.981a11.927,11.927,0,0,1-.685,7.024,7.4,7.4,0,0,1-4.215,4.034l.051.313a9.125,9.125,0,0,1,6.4,2.5,14.115,14.115,0,0,1,.339,17.184q-3.612,4.28-10.784,5.636l-15.83,3-7.459-45.454Zm81.474,31.431-10.24,1.942L452.8,396.156l-7.016,19.058-9.606,1.823,10.186-26.1-16.75-19.528,9.9-1.874,11.8,14.628,6.257-18.047,9.665-1.833-9.582,25.059Z" transform="translate(2.239 55.194)" fill="#ddd" fill-rule="evenodd"/>
  <g id="Group_875" data-name="Group 875" transform="translate(645.693 246.276)">
    <path id="Path_850" data-name="Path 850" d="M172.117,104.46l12.731-77.589L59.873,3.191a13.072,13.072,0,0,0-5.507.074,13.41,13.41,0,0,0-5,2.405A14.7,14.7,0,0,0,43.6,15.432L2.96,263.15a15.419,15.419,0,0,0,2.307,11.295,13.485,13.485,0,0,0,9.085,6.19l193.637,36.693a12.794,12.794,0,0,0,10.508-2.482,14.686,14.686,0,0,0,5.763-9.756L252.8,131.15l-72.2-13.684c-5.68-1.082-9.472-6.9-8.477-13.006" transform="translate(-2.721 -2.933)"/>
    <path id="Path_851" data-name="Path 851" d="M172.117,104.46l12.731-77.589L59.873,3.191a13.072,13.072,0,0,0-5.507.074,13.41,13.41,0,0,0-5,2.405A14.7,14.7,0,0,0,43.6,15.432L2.96,263.15a15.419,15.419,0,0,0,2.307,11.295,13.485,13.485,0,0,0,9.085,6.19l193.637,36.693a12.794,12.794,0,0,0,10.508-2.482,14.686,14.686,0,0,0,5.763-9.756L252.8,131.15l-72.2-13.684c-5.68-1.082-9.472-6.9-8.477-13.006" transform="translate(-2.721 -2.933)" fill="#fff"/>
  </g>
  <path id="Path_852" data-name="Path 852" d="M246.849,97.68,209.825,40.858A32.076,32.076,0,0,0,203.1,33.6q-1.464-1.185-3.009-2.246a36.086,36.086,0,0,0-9.248-4.744,24.041,24.041,0,0,0-2.923-.755l-4.117-.78-12.731,77.592c-.995,6.106,2.8,11.924,8.477,13.006l72.2,13.681.726-4.421a38.987,38.987,0,0,0-.646-14.17,38.191,38.191,0,0,0-4.986-13.083Z" transform="translate(644.013 245.142)" fill-rule="evenodd" fill="url(#linear-gradient-4)"/>
  <path id="Path_853" data-name="Path 853" d="M724.181,384.326q-1.3,7.936.843,12.485t7.721,5.6q11.189,2.121,13.809-13.851,2.625-16.007-8.5-18.115-5.581-1.056-9.073,2.441t-4.8,11.436m32.169,6.094q-1.929,11.76-8.394,17.049t-16.592,3.371q-10.127-1.919-14.52-9.263t-2.45-19.173q1.938-11.823,8.406-17.033t16.625-3.276q10.158,1.924,14.511,9.228t2.411,19.1m17.97,6.612-2.024,12.344,6.087,1.152q3.858.734,5.959-.5a6.013,6.013,0,0,0,2.637-4.513q.969-5.9-6.873-7.38l-5.787-1.1Zm1.31-7.968,5.427,1.024q3.8.72,5.709-.214t2.387-3.858a4.439,4.439,0,0,0-1.214-4.254c-1.1-1.024-3-1.791-5.668-2.294l-4.911-.931-1.732,10.524Zm-6.269-20.53,13.716,2.6q9.377,1.775,13.142,5.447t2.739,9.923a11.981,11.981,0,0,1-3,6.615,7.227,7.227,0,0,1-5.465,2.335l-.054.326a10.1,10.1,0,0,1,5.429,4.907,13.281,13.281,0,0,1,.655,7.671q-1.067,6.477-6.022,9.276t-12.424,1.391L761.586,415.9l7.772-47.364Zm26.814,68.28a19.766,19.766,0,0,1-5.4-1.759l1.369-8.358a17.8,17.8,0,0,0,4.3,1.484,4.817,4.817,0,0,0,4.739-1.222q1.665-1.809,2.378-6.183l7.284-44.383,9.347,1.772-7.272,44.319q-1.362,8.291-5.6,11.966t-11.142,2.367" transform="translate(4.418 54.973)" fill="#ddd" fill-rule="evenodd"/>
  <g id="Group_876" data-name="Group 876" transform="translate(454.163 203.178)">
    <path id="Path_854" data-name="Path 854" d="M175.475,98.669V1.532H19.016a16.235,16.235,0,0,0-6.674,1.356A17.111,17.111,0,0,0,6.749,6.957a18.52,18.52,0,0,0-3.783,6.01A19.87,19.87,0,0,0,1.7,20.14V330.267A21.339,21.339,0,0,0,2.02,334a18.205,18.205,0,0,0,4.733,9.449,17.028,17.028,0,0,0,5.6,4.072,16.288,16.288,0,0,0,6.671,1.359H261.44a15.919,15.919,0,0,0,9.6-3.055,18.416,18.416,0,0,0,2.661-2.377A18.183,18.183,0,0,0,278.44,334a21.633,21.633,0,0,0,.313-3.73V112.513H188.357c-7.112-.007-12.876-6.2-12.883-13.844" transform="translate(-1.703 -1.532)"/>
    <path id="Path_855" data-name="Path 855" d="M175.475,98.669V1.532H19.016a16.235,16.235,0,0,0-6.674,1.356A17.111,17.111,0,0,0,6.749,6.957a18.52,18.52,0,0,0-3.783,6.01A19.87,19.87,0,0,0,1.7,20.14V330.267A21.339,21.339,0,0,0,2.02,334a18.205,18.205,0,0,0,4.733,9.449,17.028,17.028,0,0,0,5.6,4.072,16.288,16.288,0,0,0,6.671,1.359H261.44a15.919,15.919,0,0,0,9.6-3.055,18.416,18.416,0,0,0,2.661-2.377A18.183,18.183,0,0,0,278.44,334a21.633,21.633,0,0,0,.313-3.73V112.513H188.357c-7.112-.007-12.876-6.2-12.883-13.844" transform="translate(-1.703 -1.532)" fill="#fff"/>
  </g>
  <path id="Path_856" data-name="Path 856" d="M267.851,78.142a33.129,33.129,0,0,0-2.432-2.956L209.143,14.711a41.675,41.675,0,0,0-13.707-9.3,39.161,39.161,0,0,0-15.88-3.877h-5.15V98.669c.007,7.643,5.771,13.837,12.883,13.844h90.395v-5.537a47.562,47.562,0,0,0-3.608-17.059,51.237,51.237,0,0,0-6.221-11.775Z" transform="translate(453.529 201.645)" fill-rule="evenodd" fill="url(#linear-gradient-5)"/>
  <path id="Path_857" data-name="Path 857" d="M636.967,412.535a32.974,32.974,0,0,1-48.421.083,31.307,31.307,0,0,1-6.614-11.119,31.171,31.171,0,0,1,1.8-24.115,31.9,31.9,0,0,1,7.358-9.4,33.056,33.056,0,0,1,43.334-.061,31.7,31.7,0,0,1,7.352,9.363,31.169,31.169,0,0,1,1.8,24.109A31.467,31.467,0,0,1,636.967,412.535Zm-77.11-11.925v0a55.557,55.557,0,0,1,.4-5.707L530.254,421.3c-5.242,4.552-12.294,4.549-15.609-.022-3.262-4.491-1.584-11.592,3.6-15.859l.208-.166,54.99-45.355-30.811.064v-.019c-5.215-.022-8.632-3.806-7.656-8.368.962-4.472,5.79-8.022,10.811-8.026l.083,0,60.8-.074-19.944-17.43.012-.006c-3.1-2.745-2.712-7.079.783-9.7,3.447-2.6,8.721-2.607,11.868-.019l.119.106,47.817,39.46-.006.006a52.154,52.154,0,0,1,11.814,14,51.3,51.3,0,0,1,4.882,40.115,51.952,51.952,0,0,1-10.15,18.937,53.141,53.141,0,0,1-17.762,13.774,54.433,54.433,0,0,1-46.677.086,52.814,52.814,0,0,1-17.771-13.713,51.491,51.491,0,0,1-10.159-18.9,43.583,43.583,0,0,1-1.631-9.58Zm32.916-11.093a19.789,19.789,0,0,0,5.516,14.753,21.059,21.059,0,0,0,30.3,0,19.819,19.819,0,0,0-1.036-28.5,21.086,21.086,0,0,0-28.224,0A19.939,19.939,0,0,0,592.773,389.517Z" transform="translate(3.175 51.139)" fill="#ddd" fill-rule="evenodd"/>
  <g id="Group_877" data-name="Group 877" transform="translate(830.484 47.98)">
    <path id="Path_858" data-name="Path 858" d="M807.642,25.705a7.424,7.424,0,1,1-14.809,0,7.424,7.424,0,1,1,14.809,0" transform="translate(-792.833 -17.749)"/>
    <path id="Path_859" data-name="Path 859" d="M807.642,25.705a7.424,7.424,0,1,1-14.809,0,7.424,7.424,0,1,1,14.809,0" transform="translate(-792.833 -17.749)" fill="#ff9d3f"/>
  </g>
  <g id="Group_878" data-name="Group 878" transform="translate(1119.218 249.5)">
    <path id="Path_860" data-name="Path 860" d="M1094.6,212.08a7.424,7.424,0,1,1-7.4-7.957,7.7,7.7,0,0,1,7.4,7.957" transform="translate(-1079.792 -204.124)"/>
    <path id="Path_861" data-name="Path 861" d="M1094.6,212.08a7.424,7.424,0,1,1-7.4-7.957,7.7,7.7,0,0,1,7.4,7.957" transform="translate(-1079.792 -204.124)" fill="#ff9d3f"/>
  </g>
  <g id="Group_879" data-name="Group 879" transform="translate(529.843 70.376)">
    <path id="Path_862" data-name="Path 862" d="M501.445,54.369a7.693,7.693,0,0,1-7.4-7.954,7.421,7.421,0,1,1,14.8,0,7.692,7.692,0,0,1-7.4,7.954Z" transform="translate(-494.042 -38.461)"/>
    <path id="Path_863" data-name="Path 863" d="M501.445,54.369a7.693,7.693,0,0,1-7.4-7.954,7.421,7.421,0,1,1,14.8,0,7.692,7.692,0,0,1-7.4,7.954Z" transform="translate(-494.042 -38.461)" fill="#e7e7e7"/>
  </g>
  <g id="Group_880" data-name="Group 880" transform="translate(95.253 518.2)">
    <path id="Path_864" data-name="Path 864" d="M69.528,468.535a7.974,7.974,0,1,1,7.4-7.954,7.693,7.693,0,0,1-7.4,7.954Z" transform="translate(-62.125 -452.628)"/>
    <path id="Path_865" data-name="Path 865" d="M69.528,468.535a7.974,7.974,0,1,1,7.4-7.954,7.693,7.693,0,0,1-7.4,7.954Z" transform="translate(-62.125 -452.628)" fill="#e7e7e7"/>
  </g>
  <g id="Group_881" data-name="Group 881" transform="translate(321.478 89.565)">
    <path id="Path_866" data-name="Path 866" d="M299.829,63.124a6.452,6.452,0,1,1-6.436-6.916,6.689,6.689,0,0,1,6.436,6.916" transform="translate(-286.958 -56.208)"/>
    <path id="Path_867" data-name="Path 867" d="M299.829,63.124a6.452,6.452,0,1,1-6.436-6.916,6.689,6.689,0,0,1,6.436,6.916" transform="translate(-286.958 -56.208)" fill="#1caad9"/>
  </g>
  <g id="Group_882" data-name="Group 882" transform="translate(1065.638 63.975)">
    <path id="Path_868" data-name="Path 868" d="M1039.413,39.457a6.452,6.452,0,1,1-12.871,0,6.452,6.452,0,1,1,12.871,0" transform="translate(-1026.542 -32.542)"/>
    <path id="Path_869" data-name="Path 869" d="M1039.413,39.457a6.452,6.452,0,1,1-12.871,0,6.452,6.452,0,1,1,12.871,0" transform="translate(-1026.542 -32.542)" fill="#1caad9"/>
  </g>
  <g id="Group_883" data-name="Group 883" transform="translate(243.497 222.366)">
    <path id="Path_870" data-name="Path 870" d="M219.207,184.138a5.336,5.336,0,0,1-2.4,4.645,4.586,4.586,0,0,1-4.945,0,5.336,5.336,0,0,1-2.4-4.645,4.88,4.88,0,1,1,9.749,0" transform="translate(-209.457 -179.028)"/>
    <path id="Path_871" data-name="Path 871" d="M219.207,184.138a5.336,5.336,0,0,1-2.4,4.645,4.586,4.586,0,0,1-4.945,0,5.336,5.336,0,0,1-2.4-4.645,4.88,4.88,0,1,1,9.749,0" transform="translate(-209.457 -179.028)" fill="#e7e7e7"/>
  </g>
  <g id="Group_884" data-name="Group 884" transform="translate(958.476 179.132)">
    <path id="Path_872" data-name="Path 872" d="M936.508,147.892c0,4.889-3.687,8.851-8.235,8.851s-8.235-3.962-8.235-8.849,3.687-8.85,8.235-8.85,8.235,3.962,8.235,8.849" transform="translate(-920.039 -139.044)"/>
    <path id="Path_873" data-name="Path 873" d="M936.508,147.892c0,4.889-3.687,8.851-8.235,8.851s-8.235-3.962-8.235-8.849,3.687-8.85,8.235-8.85,8.235,3.962,8.235,8.849" transform="translate(-920.039 -139.044)" fill="#e7e7e7"/>
  </g>
  <g id="Group_885" data-name="Group 885" transform="translate(1077.542 463.82)">
    <path id="Path_874" data-name="Path 874" d="M1054.842,411.184c0,4.889-3.687,8.851-8.235,8.851s-8.235-3.962-8.235-8.849,3.687-8.85,8.235-8.85,8.235,3.962,8.235,8.849" transform="translate(-1038.372 -402.336)"/>
    <path id="Path_875" data-name="Path 875" d="M1054.842,411.184c0,4.889-3.687,8.851-8.235,8.851s-8.235-3.962-8.235-8.849,3.687-8.85,8.235-8.85,8.235,3.962,8.235,8.849" transform="translate(-1038.372 -402.336)" fill="#e7e7e7"/>
  </g>
  <g id="Group_886" data-name="Group 886" transform="translate(717.371 150.341)">
    <path id="Path_876" data-name="Path 876" d="M702.616,124.345c0,6.588-4.97,11.928-11.1,11.928s-11.1-5.34-11.1-11.928,4.97-11.928,11.1-11.928,11.1,5.34,11.1,11.928" transform="translate(-680.417 -112.417)"/>
    <path id="Path_877" data-name="Path 877" d="M702.616,124.345c0,6.588-4.97,11.928-11.1,11.928s-11.1-5.34-11.1-11.928,4.97-11.928,11.1-11.928,11.1,5.34,11.1,11.928" transform="translate(-680.417 -112.417)" fill="#1caad9"/>
  </g>
  <g id="Group_887" data-name="Group 887" transform="translate(32.743 265.496)">
    <path id="Path_878" data-name="Path 878" d="M22.2,230.845c0,6.588-4.97,11.928-11.1,11.928S0,237.432,0,230.845s4.97-11.928,11.1-11.928,11.1,5.34,11.1,11.928" transform="translate(0 -218.917)"/>
    <path id="Path_879" data-name="Path 879" d="M22.2,230.845c0,6.588-4.97,11.928-11.1,11.928S0,237.432,0,230.845s4.97-11.928,11.1-11.928,11.1,5.34,11.1,11.928" transform="translate(0 -218.917)" fill="#1caad9"/>
  </g>
  <g id="Group_889" data-name="Group 889" transform="translate(212.095 31.987)">
    <g id="Group_888" data-name="Group 888" transform="translate(0 0)">
      <path id="Path_880" data-name="Path 880" d="M22.948,13.839c0,6.588-4.97,11.928-11.1,11.928S.748,20.427.748,13.839s4.97-11.928,11.1-11.928,11.1,5.34,11.1,11.928" transform="translate(-0.748 -1.911)"/>
      <path id="Path_881" data-name="Path 881" d="M22.948,13.839c0,6.588-4.97,11.928-11.1,11.928S.748,20.427.748,13.839s4.97-11.928,11.1-11.928,11.1,5.34,11.1,11.928" transform="translate(-0.748 -1.911)" fill="#ff9d3f"/>
    </g>
  </g>
</svg>
